<?xml version="1.0" encoding="utf-8"?>
<!-- Generator: Adobe Illustrator 19.0.0, SVG Export Plug-In . SVG Version: 6.00 Build 0)  -->
<svg version="1.1" id="Layer_1" xmlns="http://www.w3.org/2000/svg" xmlns:xlink="http://www.w3.org/1999/xlink" x="0px" y="0px"
	 viewBox="-49 141 512 512" style="enable-background:new -49 141 512 512;" xml:space="preserve">
<style type="text/css">
	.st0{display:none;}
	.st1{display:inline;}
	.st2{fill:#FFFFFF;}
</style>
<g class="st0">
	<path class="st1" d="M207,141C66.2,141-49,256.2-49,397S66.2,653,207,653s256-115.2,256-256S347.8,141,207,141z M207,511.4
		c-120,0-184-112-184-112s64.8-112,184-112c120,0,184,112,184,112S327,511.4,207,511.4z"/>
	<path class="st1" d="M207,304.2c-52.8,0-95.2,42.4-95.2,95.2s42.4,95.2,95.2,95.2s95.2-42.4,95.2-95.2S259.8,304.2,207,304.2z
		 M207,463.4c-35.2,0-64-28.8-64-64s28.8-64,64-64s64,28.8,64,64S242.2,463.4,207,463.4z"/>
	<path class="st1" d="M231,403.4c-12.8,0-23.2-10.4-23.2-23.2c0-11.2,8-20.8,19.2-22.4c-6.4-3.2-12.8-4.8-20-4.8
		c-25.6,0-46.4,20.8-46.4,46.4s20.8,46.4,46.4,46.4s46.4-20.8,46.4-46.4c0-4-0.8-7.2-1.6-10.4C248.6,397,240.6,403.4,231,403.4z"/>
</g>
<g id="Layer_1_1_">
</g>
<circle cx="207" cy="397" r="256"/>
<g>
	<path class="st2" d="M239.4,416.1l22.4-24.1l-18.6-18.6L219,395.8c-8-5.3-17-9.1-26.7-11.1l-1.2-32.9h-26.3l-1.2,32.9
		c-9.7,1.9-18.8,5.7-26.7,11.1l-24.1-22.4L94.1,392l22.4,24.1c-5.4,8-9.2,17-11.1,26.8l-32.8,1.2v26.3l32.7,1.2
		c1.9,9.8,5.7,18.9,11.1,26.9l-22.2,23.9l18.6,18.6l23.9-22.2c8,5.4,17.1,9.3,26.9,11.2l1.2,32.6h26.3l1.2-32.6
		c9.8-1.9,18.9-5.8,26.9-11.2l23.9,22.2l18.6-18.6l-22.2-23.9c5.4-8,9.2-17.1,11.1-26.9l32.7-1.2v-26.3l-32.8-1.2
		C248.6,433.1,244.7,424.1,239.4,416.1z M177.9,507c-27.4,0-49.6-22.2-49.6-49.6c0-27.4,22.2-49.6,49.6-49.6s49.6,22.2,49.6,49.6
		C227.5,484.8,205.3,507,177.9,507z"/>
	<path class="st2" d="M318.9,308.7l22.5-4l-2.5-18.3l-22.8,2.3c-2.3-6.6-5.8-12.5-10.3-17.5l13.2-18.8l-14.7-11.1l-14.6,17.8
		c-6-2.9-12.7-4.7-19.6-5.1l-4-22.7l-18.3,2.5l2.3,22.9c-6.6,2.3-12.5,5.8-17.5,10.2L214,253.8l-11.1,14.7l17.8,14.5
		c-3,6-4.8,12.7-5.2,19.6l-22.6,4l2.5,18.3l22.8-2.3c2.3,6.6,5.8,12.5,10.3,17.6l-13.1,18.7L230,370l14.4-17.7
		c6.1,3,12.8,4.8,19.7,5.2l3.9,22.5l18.3-2.5l-2.3-22.7c6.6-2.3,12.6-5.8,17.6-10.3l18.7,13.1l11.1-14.7l-17.7-14.5
		C316.7,322.3,318.5,315.7,318.9,308.7z M271.9,340.1c-19,2.6-36.5-10.6-39.1-29.6c-2.6-19,10.6-36.5,29.6-39.1
		c19-2.6,36.5,10.6,39.1,29.6C304.2,320,290.9,337.5,271.9,340.1z"/>
</g>
</svg>
