<?xml version="1.0" encoding="utf-8"?>
<!-- Generator: Adobe Illustrator 19.0.0, SVG Export Plug-In . SVG Version: 6.00 Build 0)  -->
<svg version="1.1" id="Layer_1" xmlns="http://www.w3.org/2000/svg" xmlns:xlink="http://www.w3.org/1999/xlink" x="0px" y="0px"
	 viewBox="-49 141 512 512" style="enable-background:new -49 141 512 512;" xml:space="preserve">
<style type="text/css">
	.st0{display:none;}
	.st1{display:inline;}
	.st2{fill:#FFFFFF;}
</style>
<g id="home" class="st0">
	<g class="st1">
		<circle cx="207" cy="397" r="253.4"/>
		<path class="st2" d="M135.7,424.8c0.1,0,0.1,0.1,0.1,0.1c-0.1,0-0.1,0-0.1,0.1c0,0-0.1-0.1-0.1-0.1
			C135.6,424.9,135.6,424.8,135.7,424.8z"/>
		<path class="st2" d="M278.5,424.9c0,0.1-0.1,0.1-0.2,0.2c-0.1,0-0.1-0.1-0.2-0.1c0.1-0.1,0.1-0.1,0.2-0.2
			C278.4,424.8,278.4,424.8,278.5,424.9z"/>
		<path class="st2" d="M289.4,509.1H124.6c-6.6,0-12-5.4-12-12V376.4h188.8v120.7C301.4,503.7,296,509.1,289.4,509.1z"/>
		<path class="st2" d="M325.4,393.5c5,5,1.4,13.6-5.7,13.5l-111.9-0.8l-112.2-0.8c-7,0-10.5-8.6-5.6-13.5l111.3-111.3
			c3.1-3.1,8.1-3.1,11.2,0L325.4,393.5z"/>
		<path d="M225.8,423.2h-37.5c-9.3,0-16.9,7.6-16.9,16.9v69.5h71.3v-69.5C242.6,430.8,235.1,423.2,225.8,423.2z"/>
	</g>
</g>
<g id="Layer_1_1_">
</g>
<g>
	<path d="M208,141C67.2,141-48,256.2-48,397S67.2,653,208,653s256-115.2,256-256S348.8,141,208,141z M208,511.4
		c-120,0-184-112-184-112s64.8-112,184-112c120,0,184,112,184,112S328,511.4,208,511.4z"/>
	<path d="M208,304.2c-52.8,0-95.2,42.4-95.2,95.2s42.4,95.2,95.2,95.2s95.2-42.4,95.2-95.2C303.2,346.6,260.8,304.2,208,304.2z
		 M208,463.4c-35.2,0-64-28.8-64-64s28.8-64,64-64s64,28.8,64,64C272,434.6,243.2,463.4,208,463.4z"/>
	<path d="M232,403.4c-12.8,0-23.2-10.4-23.2-23.2c0-11.2,8-20.8,19.2-22.4c-6.4-3.2-12.8-4.8-20-4.8c-25.6,0-46.4,20.8-46.4,46.4
		c0,25.6,20.8,46.4,46.4,46.4s46.4-20.8,46.4-46.4c0-4-0.8-7.2-1.6-10.4C249.6,397,241.6,403.4,232,403.4z"/>
</g>
</svg>
