<?xml version="1.0" encoding="utf-8"?>
<!-- Generator: Adobe Illustrator 19.0.0, SVG Export Plug-In . SVG Version: 6.00 Build 0)  -->
<svg version="1.0" id="Layer_1" xmlns="http://www.w3.org/2000/svg" xmlns:xlink="http://www.w3.org/1999/xlink" x="0px" y="0px"
	 viewBox="-49 141 512 512" style="enable-background:new -49 141 512 512;" xml:space="preserve">
<style type="text/css">
	.st0{fill:#FFFFFF;}
</style>
<circle cx="207" cy="397" r="253.4"/>
<path class="st0" d="M136.9,325.1h3.9c6,0,10.9-4.9,10.9-10.9v-30V273c0-6-4.9-10.9-10.9-10.9h-3.9c-6,0-10.9,4.9-10.9,10.9v11.2v30
	C126.1,320.2,130.9,325.1,136.9,325.1z"/>
<path class="st0" d="M276.3,324.8h3.9c6,0,10.9-4.9,10.9-10.9v-32.6v-8.6c0-6-4.9-10.9-10.9-10.9h-3.9c-6,0-10.9,4.9-10.9,10.9v8.6
	V314C265.4,320,270.3,324.8,276.3,324.8z"/>
<path class="st0" d="M327.8,284.3h-27.9v32.6c0,10.9-8.8,16.9-19.7,16.9h-3.9c-10.9,0-19.7-8.8-19.7-19.7v-29.7h-96v30
	c0,10.9-8.8,19.7-19.7,19.7h-3.9c-10.9,0-19.7-8.8-19.7-19.7v-30H87.1c-9.7,0-17.7,7.9-17.7,17.7v213.4c0,9.7,7.9,17.7,17.7,17.7
	h240.7c9.7,0,17.7-7.9,17.7-17.7V301.9C345.5,292.2,337.6,284.3,327.8,284.3z M327.8,515.4H87.1l0-161.2h240.7L327.8,515.4
	C327.8,515.4,327.8,515.4,327.8,515.4z"/>
<path class="st0" d="M216.6,408.3h31.7c1.3,0,2.3-1,2.3-2.3v-27.5c0-1.3-1-2.3-2.3-2.3h-31.7c-1.3,0-2.3,1-2.3,2.3V406
	C214.3,407.2,215.3,408.3,216.6,408.3z"/>
<path class="st0" d="M268.4,408.3h31.7c1.3,0,2.3-1,2.3-2.3v-27.5c0-1.3-1-2.3-2.3-2.3h-31.7c-1.3,0-2.3,1-2.3,2.3V406
	C266.1,407.2,267.1,408.3,268.4,408.3z"/>
<path class="st0" d="M113.1,453.2h31.7c1.3,0,2.3-1,2.3-2.3v-27.5c0-1.3-1-2.3-2.3-2.3h-31.7c-1.3,0-2.3,1-2.3,2.3v27.5
	C110.8,452.2,111.8,453.2,113.1,453.2z"/>
<path class="st0" d="M164.8,453.2h31.7c1.3,0,2.3-1,2.3-2.3v-27.5c0-1.3-1-2.3-2.3-2.3h-31.7c-1.3,0-2.3,1-2.3,2.3v27.5
	C162.6,452.2,163.6,453.2,164.8,453.2z"/>
<path class="st0" d="M216.6,453.2h31.7c1.3,0,2.3-1,2.3-2.3v-27.5c0-1.3-1-2.3-2.3-2.3h-31.7c-1.3,0-2.3,1-2.3,2.3v27.5
	C214.3,452.2,215.3,453.2,216.6,453.2z"/>
<path class="st0" d="M268.4,453.2h31.7c1.3,0,2.3-1,2.3-2.3v-27.5c0-1.3-1-2.3-2.3-2.3h-31.7c-1.3,0-2.3,1-2.3,2.3v27.5
	C266.1,452.2,267.1,453.2,268.4,453.2z"/>
<path class="st0" d="M144.8,466.2h-31.7c-1.3,0-2.3,1-2.3,2.3v27.5c0,1.3,1,2.3,2.3,2.3h31.7c1.3,0,2.3-1,2.3-2.3v-27.5
	C147.1,467.2,146,466.2,144.8,466.2z"/>
<path class="st0" d="M196.6,466.2h-31.7c-1.3,0-2.3,1-2.3,2.3v27.5c0,1.3,1,2.3,2.3,2.3h31.7c1.3,0,2.3-1,2.3-2.3v-27.5
	C198.8,467.2,197.8,466.2,196.6,466.2z"/>
<path class="st0" d="M248.3,466.2h-31.7c-1.3,0-2.3,1-2.3,2.3v27.5c0,1.3,1,2.3,2.3,2.3h31.7c1.3,0,2.3-1,2.3-2.3v-27.5
	C250.6,467.2,249.6,466.2,248.3,466.2z"/>
<path class="st0" d="M300.1,466.2h-31.7c-1.3,0-2.3,1-2.3,2.3v27.5c0,1.3,1,2.3,2.3,2.3h31.7c1.3,0,2.3-1,2.3-2.3v-27.5
	C302.3,467.2,301.3,466.2,300.1,466.2z"/>
</svg>
