<?xml version="1.0" encoding="utf-8"?>
<!-- Generator: Adobe Illustrator 19.0.0, SVG Export Plug-In . SVG Version: 6.00 Build 0)  -->
<svg version="1.1" id="Capa_1" xmlns="http://www.w3.org/2000/svg" xmlns:xlink="http://www.w3.org/1999/xlink" x="0px" y="0px"
	 viewBox="-63 154 485 485" style="enable-background:new -63 154 485 485;" xml:space="preserve">
<style type="text/css">
	.st0{display:none;fill:#FFFFFF;}
	.st1{display:none;}
	.st2{display:inline;}
	.st3{fill:#FFFFFF;}
	.st4{display:none;fill:#231F20;}
</style>
<rect x="23" y="269" class="st0" width="311" height="267"/>
<g class="st1">
	<g id="_x31_5_38_" class="st2">
		<g>
			<path class="st3" d="M117.9,333.3h3.4c5.2,0,9.5-4.2,9.5-9.5v-26.2v-9.8c0-5.2-4.2-9.5-9.5-9.5h-3.4c-5.2,0-9.5,4.2-9.5,9.5v9.8
				v26.2C108.4,329.1,112.6,333.3,117.9,333.3z"/>
			<path class="st3" d="M239.6,333.1h3.4c5.2,0,9.5-4.2,9.5-9.5v-28.4v-7.5c0-5.2-4.2-9.5-9.5-9.5h-3.4c-5.2,0-9.5,4.2-9.5,9.5v7.5
				v28.4C230.1,328.9,234.3,333.1,239.6,333.1z"/>
			<path class="st3" d="M284.6,297.7h-24.3v28.4c0,9.5-7.7,14.7-17.2,14.7h-3.4c-9.5,0-17.2-7.7-17.2-17.2v-25.9h-83.8v26.2
				c0,9.5-7.7,17.2-17.2,17.2h-3.4c-9.5,0-17.2-7.7-17.2-17.2v-26.2H74.4c-8.5,0-15.4,6.9-15.4,15.4v186.4c0,8.5,6.9,15.4,15.4,15.4
				h210.2c8.5,0,15.4-6.9,15.4-15.4V313.1C300,304.6,293.1,297.7,284.6,297.7z M284.6,499.5H74.4l0-140.7h210.2L284.6,499.5
				C284.6,499.5,284.6,499.5,284.6,499.5z"/>
			<path class="st3" d="M187.4,405.9h27.7c1.1,0,2-0.9,2-2v-24c0-1.1-0.9-2-2-2h-27.7c-1.1,0-2,0.9-2,2v24
				C185.5,405,186.3,405.9,187.4,405.9z"/>
			<path class="st3" d="M232.6,405.9h27.7c1.1,0,2-0.9,2-2v-24c0-1.1-0.9-2-2-2h-27.7c-1.1,0-2,0.9-2,2v24
				C230.6,405,231.5,405.9,232.6,405.9z"/>
			<path class="st3" d="M97,445.2h27.7c1.1,0,2-0.9,2-2v-24c0-1.1-0.9-2-2-2H97c-1.1,0-2,0.9-2,2v24C95.1,444.3,95.9,445.2,97,445.2
				z"/>
			<path class="st3" d="M142.2,445.2h27.7c1.1,0,2-0.9,2-2v-24c0-1.1-0.9-2-2-2h-27.7c-1.1,0-2,0.9-2,2v24
				C140.3,444.3,141.1,445.2,142.2,445.2z"/>
			<path class="st3" d="M187.4,445.2h27.7c1.1,0,2-0.9,2-2v-24c0-1.1-0.9-2-2-2h-27.7c-1.1,0-2,0.9-2,2v24
				C185.5,444.3,186.3,445.2,187.4,445.2z"/>
			<path class="st3" d="M232.6,445.2h27.7c1.1,0,2-0.9,2-2v-24c0-1.1-0.9-2-2-2h-27.7c-1.1,0-2,0.9-2,2v24
				C230.6,444.3,231.5,445.2,232.6,445.2z"/>
			<path class="st3" d="M124.7,456.5H97c-1.1,0-2,0.9-2,2v24c0,1.1,0.9,2,2,2h27.7c1.1,0,2-0.9,2-2v-24
				C126.7,457.4,125.8,456.5,124.7,456.5z"/>
			<path class="st3" d="M169.9,456.5h-27.7c-1.1,0-2,0.9-2,2v24c0,1.1,0.9,2,2,2h27.7c1.1,0,2-0.9,2-2v-24
				C171.9,457.4,171,456.5,169.9,456.5z"/>
			<path class="st3" d="M215.1,456.5h-27.7c-1.1,0-2,0.9-2,2v24c0,1.1,0.9,2,2,2h27.7c1.1,0,2-0.9,2-2v-24
				C217.1,457.4,216.2,456.5,215.1,456.5z"/>
			<path class="st3" d="M260.3,456.5h-27.7c-1.1,0-2,0.9-2,2v24c0,1.1,0.9,2,2,2h27.7c1.1,0,2-0.9,2-2v-24
				C262.3,457.4,261.4,456.5,260.3,456.5z"/>
		</g>
	</g>
</g>
<circle cx="179.5" cy="396.5" r="242.5"/>
<circle cx="179.5" cy="396.5" r="242.5"/>
<path class="st3" d="M285.4,504.9H73.5c-7.8,0-14.2-6.3-14.2-14.2V302.3c0-7.8,6.3-14.2,14.2-14.2h211.9c7.8,0,14.2,6.3,14.2,14.2
	v188.5C299.6,498.6,293.3,504.9,285.4,504.9z"/>
<rect x="74.4" y="358" width="210.2" height="140"/>
<path class="st3" d="M124.7,445.2H97.1c-1.1,0-2-0.9-2-2v-24c0-1.1,0.9-2,2-2h27.7c1.1,0,2,0.9,2,2v24
	C126.7,444.3,125.8,445.2,124.7,445.2z"/>
<path class="st3" d="M169.9,445.2h-27.7c-1.1,0-2-0.9-2-2v-24c0-1.1,0.9-2,2-2h27.7c1.1,0,2,0.9,2,2v24
	C171.9,444.3,171,445.2,169.9,445.2z"/>
<path class="st3" d="M215.1,445.2h-27.7c-1.1,0-2-0.9-2-2v-24c0-1.1,0.9-2,2-2h27.7c1.1,0,2,0.9,2,2v24
	C217.1,444.3,216.2,445.2,215.1,445.2z"/>
<path class="st3" d="M260.3,445.2h-27.7c-1.1,0-2-0.9-2-2v-24c0-1.1,0.9-2,2-2h27.7c1.1,0,2,0.9,2,2v24
	C262.3,444.3,261.4,445.2,260.3,445.2z"/>
<path class="st3" d="M124.7,484.5H97.1c-1.1,0-2-0.9-2-2v-24c0-1.1,0.9-2,2-2h27.7c1.1,0,2,0.9,2,2v24
	C126.7,483.6,125.8,484.5,124.7,484.5z"/>
<path class="st3" d="M169.9,484.5h-27.7c-1.1,0-2-0.9-2-2v-24c0-1.1,0.9-2,2-2h27.7c1.1,0,2,0.9,2,2v24
	C171.9,483.6,171,484.5,169.9,484.5z"/>
<path class="st3" d="M215.1,484.5h-27.7c-1.1,0-2-0.9-2-2v-24c0-1.1,0.9-2,2-2h27.7c1.1,0,2,0.9,2,2v24
	C217.1,483.6,216.2,484.5,215.1,484.5z"/>
<path class="st3" d="M260.3,484.5h-27.7c-1.1,0-2-0.9-2-2v-24c0-1.1,0.9-2,2-2h27.7c1.1,0,2,0.9,2,2v24
	C262.3,483.6,261.4,484.5,260.3,484.5z"/>
<path class="st3" d="M260.3,405.9h-27.7c-1.1,0-2-0.9-2-2v-24c0-1.1,0.9-2,2-2h27.7c1.1,0,2,0.9,2,2v24
	C262.3,405,261.4,405.9,260.3,405.9z"/>
<path class="st3" d="M215.1,405.9h-27.7c-1.1,0-2-0.9-2-2v-24c0-1.1,0.9-2,2-2h27.7c1.1,0,2,0.9,2,2v24
	C217.1,405,216.2,405.9,215.1,405.9z"/>
<path class="st4" d="M250.4,342.1h-18.3c-5.4,0-9.8-4.4-9.8-9.8v-56.9c0-5.4,4.4-9.8,9.8-9.8h18.3c5.4,0,9.8,4.4,9.8,9.8v56.9
	C260.2,337.7,255.8,342.1,250.4,342.1z"/>
<path class="st3" d="M242.7,324.2h-2.9c-5.4,0-9.8-4.4-9.8-9.8v-35.6c0-5.4,4.4-9.8,9.8-9.8h2.9c5.4,0,9.8,4.4,9.8,9.8v35.6
	C252.5,319.8,248.1,324.2,242.7,324.2z"/>
<path class="st4" d="M128.7,342.1h-18.3c-5.4,0-9.8-4.4-9.8-9.8v-56.9c0-5.4,4.4-9.8,9.8-9.8h18.3c5.4,0,9.8,4.4,9.8,9.8v56.9
	C138.5,337.7,134.1,342.1,128.7,342.1z"/>
<path class="st3" d="M121,324.2h-2.9c-5.4,0-9.8-4.4-9.8-9.8v-35.6c0-5.4,4.4-9.8,9.8-9.8h2.9c5.4,0,9.8,4.4,9.8,9.8v35.6
	C130.8,319.8,126.4,324.2,121,324.2z"/>
</svg>
