<?xml version="1.0" encoding="utf-8"?>
<!-- Generator: Adobe Illustrator 19.0.0, SVG Export Plug-In . SVG Version: 6.00 Build 0)  -->
<svg version="1.1" id="Capa_1" xmlns="http://www.w3.org/2000/svg" xmlns:xlink="http://www.w3.org/1999/xlink" x="0px" y="0px"
	 viewBox="-49 141 512 512" style="enable-background:new -49 141 512 512;" xml:space="preserve">
<style type="text/css">
	.st0{display:none;}
	.st1{display:inline;fill:#FFFFFF;}
	.st2{fill:#FFFFFF;}
</style>
<g class="st0">
	<circle class="st1" cx="128.7" cy="305.1" r="22.6"/>
	<path class="st1" d="M103.5,407h2.2v44.9c0,6.2,5.1,11.2,11.2,11.2h23.6c6.2,0,11.2-5,11.2-11.2v-2.6c-2.1-3.9-3.4-8.4-3.4-13.1
		v-58.7c0-11.4,6.9-21.3,16.8-25.6v-4.5c0-6.2-5.1-11.2-11.2-11.2h-50.5c-6.2,0-11.2,5.1-11.2,11.2v48.5
		C92.2,402,97.1,407,103.5,407z"/>
	<circle class="st1" cx="285.5" cy="305.1" r="22.6"/>
	<path class="st1" d="M248.8,347.1v4.5c9.9,4.3,16.8,14.2,16.8,25.6v58.6c0,4.7-1.1,9.2-3.4,13.1v2.6c0,6.2,5,11.2,11.2,11.2h23.6
		c6.2,0,11.2-5.1,11.2-11.2v-44.9h2.2c6.2,0,11.2-5.1,11.2-11.2v-48.3c0-6.2-5-11.2-11.2-11.2H260
		C253.9,335.9,248.8,341,248.8,347.1z"/>
	<path class="st1" d="M165.4,377.4L165.4,377.4v18.3v40.4c0,6.2,5.1,11.2,11.2,11.2h4.3v52.9c0,6.2,5.1,11.2,11.2,11.2h30.1
		c6.2,0,11.2-5.1,11.2-11.2v-53.1h4.3c6.2,0,11.2-5,11.2-11.2v-40.2v-18.3l0,0c0-6.2-5.1-11.2-11.2-11.2h-61.2
		C170.2,366.2,165.4,371.3,165.4,377.4z"/>
	<circle class="st1" cx="207.1" cy="330.9" r="26"/>
</g>
<rect x="-49" y="141" class="st2" width="512" height="512"/>
<circle cx="207" cy="397" r="256"/>
<g>
	<circle class="st2" cx="207" cy="333.8" r="26.1"/>
	<path class="st2" d="M237.6,369.2h-61.3c-6.2,0-11.2,5-11.2,11.2v58.4c0,6.2,5,11.2,11.2,11.2h4.5v53.7c0,6,4.9,10.8,10.8,10.8
		h30.9c6,0,10.8-4.9,10.8-10.8V450h4.2c6.2,0,11.2-5,11.2-11.2v-58.4C248.8,374.2,243.8,369.2,237.6,369.2z"/>
	<path class="st2" d="M155.3,332.8h-53.2c-5.4,0-9.7,4.3-9.7,9.7v50.7c0,5.4,4.3,9.7,9.7,9.7h3.9v46.6c0,5.2,4.2,9.4,9.4,9.4h26.8
		c2.8,0,5.3-1.2,7-3.1c-0.7-1.8-1.1-3.7-1.1-5.8v-82.2c0-8.7,7-15.7,15.7-15.7h1.1v-9.6C165,337.1,160.7,332.8,155.3,332.8z"/>
	<circle class="st2" cx="285.3" cy="302.1" r="22.7"/>
	<circle class="st2" cx="128.7" cy="302.1" r="22.7"/>
	<path class="st2" d="M311.9,332.8h-53.2c-5.4,0-9.7,4.3-9.7,9.7v9.6h1.1c8.7,0,15.7,7,15.7,15.7v82.2c0,1.9-0.4,3.8-1,5.5
		c1.7,2.1,4.3,3.4,7.2,3.4h26.8c5.2,0,9.4-4.2,9.4-9.4v-46.6h3.6c5.4,0,9.7-4.3,9.7-9.7v-50.7C321.6,337.1,317.2,332.8,311.9,332.8z
		"/>
</g>
</svg>
