<?xml version="1.0" encoding="utf-8"?>
<!-- Generator: Adobe Illustrator 19.0.0, SVG Export Plug-In . SVG Version: 6.00 Build 0)  -->
<svg version="1.1" id="Layer_1" xmlns="http://www.w3.org/2000/svg" xmlns:xlink="http://www.w3.org/1999/xlink" x="0px" y="0px"
	 viewBox="-49 141 512 512" style="enable-background:new -49 141 512 512;" xml:space="preserve">
<style type="text/css">
	.st0{display:none;}
	.st1{display:inline;}
	.st2{fill:#FFFFFF;}
</style>
<g id="home" class="st0">
	<g class="st1">
		<path class="st2" d="M135.7,424.8c0.1,0,0.1,0.1,0.1,0.1c-0.1,0-0.1,0-0.1,0.1c0,0-0.1-0.1-0.1-0.1
			C135.6,424.9,135.6,424.8,135.7,424.8z"/>
		<path class="st2" d="M278.5,424.9c0,0.1-0.1,0.1-0.2,0.2c-0.1,0-0.1-0.1-0.2-0.1c0.1-0.1,0.1-0.1,0.2-0.2
			C278.4,424.8,278.4,424.8,278.5,424.9z"/>
		<path class="st2" d="M289.4,509.1H124.6c-6.6,0-12-5.4-12-12V376.4h188.8v120.7C301.4,503.7,296,509.1,289.4,509.1z"/>
		<path class="st2" d="M325.4,393.5c5,5,1.4,13.6-5.7,13.5l-111.9-0.8l-112.2-0.8c-7,0-10.5-8.6-5.6-13.5l111.3-111.3
			c3.1-3.1,8.1-3.1,11.2,0L325.4,393.5z"/>
		<path d="M225.8,423.2h-37.5c-9.3,0-16.9,8.5-16.9,18.9V520h71.3v-77.9C242.6,431.7,235.1,423.2,225.8,423.2z"/>
	</g>
</g>
<g id="Layer_1_1_">
</g>
<circle cx="207" cy="397" r="253.4"/>
<path class="st2" d="M342.5,375.6L298,341.7v-2.2h-2.9l-88.1-67l-88.1,67H116v2.2l-44.5,33.9c-2.4,1.8-0.7,4.9,2.7,4.9H116v129
	c0,6.6,5.4,12,12,12h42v-62c0-6.6,5.4-12,12-12h50c6.6,0,12,5.4,12,12v62h42c6.6,0,12-5.4,12-12v-129h41.8
	C343.2,380.5,344.9,377.4,342.5,375.6z"/>
</svg>
